<svg t="1736301632523" class="icon" viewBox="0 0 1024 1024" version="1.1" xmlns="http://www.w3.org/2000/svg" p-id="7060"
    width="200" height="200">
    <path d="M0 0h1024v1024H0z" fill="#FFFFFF" p-id="7061"></path>
    <path
        d="M897.3824 136.533333H126.634667A41.2672 41.2672 0 0 0 85.333333 177.783467v550.144a41.2672 41.2672 0 0 0 41.284267 41.233066h261.512533v68.7616l-55.057066 55.022934v13.738666h357.853866v-13.738666l-55.057066-55.005867v-68.778667H897.365333A41.2672 41.2672 0 0 0 938.666667 727.927467V177.783467A41.2672 41.2672 0 0 0 897.3824 136.533333z m-13.7728 522.615467H140.3904V191.556267h743.2192v467.592533z"
        fill="#A9B0AE" p-id="7062"></path>
    <path
        d="M575.778133 332.288c15.36 0 29.184 4.164267 41.472 12.458667 6.587733 4.369067 13.277867 10.786133 20.087467 19.319466-10.069333 8.704-17.442133 16.366933-22.050133 22.903467a68.181333 68.181333 0 0 0-12.8512 39.970133c0 15.940267 4.488533 30.327467 13.499733 43.2128 9.0112 12.629333 19.336533 20.821333 30.976 24.576a206.592 206.592 0 0 1-24.064 48.4352c-16.896 25.344-33.5872 37.973333-50.056533 37.973334-6.178133 0-15.274667-2.048-27.3408-6.1952-11.195733-4.164267-20.974933-6.229333-29.303467-6.229334-8.362667 0-17.578667 2.167467-27.6992 6.536534-10.5472 4.164267-19.217067 6.229333-26.026667 6.229333-19.746133 0-39.168-16.708267-58.299733-50.090667-19.114667-32.9728-28.654933-65.399467-28.654933-97.28 0-29.457067 7.253333-53.5552 21.742933-72.362666 14.933333-18.773333 33.3824-28.142933 55.3472-28.142934 4.829867 0 10.205867 0.631467 16.128 1.792 5.956267 1.2288 12.0832 3.447467 18.432 6.724267 6.826667 3.703467 12.4416 6.280533 16.827733 7.697067 4.369067 1.416533 7.799467 2.133333 10.205867 2.133333 2.8672 0 7.253333-0.648533 13.175467-1.979733a59.767467 59.767467 0 0 0 17.783466-7.202134 135.338667 135.338667 0 0 1 16.4864-7.850666 40.277333 40.277333 0 0 1 14.1824-2.628267zM572.450133 256l0.989867 4.608v3.584c0 7.850667-1.860267 16.674133-5.597867 26.5216a80.5888 80.5888 0 0 1-18.090666 26.504533v0.017067c-7.714133 7.185067-14.7456 11.912533-21.111467 14.062933a64.853333 64.853333 0 0 1-8.379733 1.826134c-3.413333 0.546133-7.3216 1.041067-11.7248 1.467733 0.238933-19.234133 5.2736-35.805867 15.189333-49.7664 9.864533-13.9776 26.112-23.586133 48.725333-28.8256z"
        fill="#A9B0AE" p-id="7063"></path>
</svg>