<?xml version="1.0" standalone="no"?><!DOCTYPE svg PUBLIC "-//W3C//DTD SVG 1.1//EN" "http://www.w3.org/Graphics/SVG/1.1/DTD/svg11.dtd"><svg t="1736840116262" class="icon" viewBox="0 0 1024 1024" version="1.1" xmlns="http://www.w3.org/2000/svg" p-id="1479" xmlns:xlink="http://www.w3.org/1999/xlink" width="200" height="200"><path d="M430.08 907.946667H191.146667V116.053333h238.933333c34.133333 0 61.44-27.306667 61.44-61.44S464.213333 0 430.08 0H129.706667C95.573333 0 68.266667 27.306667 68.266667 61.44v901.12c0 34.133333 27.306667 61.44 61.44 61.44h300.373333c34.133333 0 61.44-27.306667 61.44-61.44 0-27.306667-27.306667-54.613333-61.44-54.613333z" fill="#646464" p-id="1480"></path><path d="M935.253333 471.04L744.106667 293.546667c-6.826667-13.653333-20.48-13.653333-34.133334-13.653334-34.133333 0-54.613333 27.306667-54.613333 61.44 0 13.653333 6.826667 34.133333 20.48 40.96L750.933333 457.386667H402.773333c-27.306667 0-54.613333 20.48-54.613333 54.613333s27.306667 61.44 54.613333 61.44H750.933333L669.013333 648.533333c-13.653333 13.653333-20.48 27.306667-20.48 40.96 0 34.133333 27.306667 61.44 54.613334 61.44 13.653333 0 27.306667-6.826667 40.96-13.653333l191.146666-177.493333c13.653333-13.653333 20.48-27.306667 20.48-47.786667 0-13.653333-6.826667-34.133333-20.48-40.96z" fill="#646464" p-id="1481"></path></svg>